<?xml version="1.0" encoding="UTF-8"?>
<svg id="Calque_1" xmlns="http://www.w3.org/2000/svg" viewBox="0 0 1080 1080">
  <defs>
    <style>
      .cls-1 {
        fill: #6091cc;
        font-family: Pragmatica-Bold, Pragmatica;
        font-size: 41.56px;
        font-weight: 700;
      }

      .cls-2 {
        letter-spacing: .1em;
      }

      .cls-3 {
        fill: #fff;
      }

      .cls-4 {
        fill: #29518c;
      }

      .cls-5 {
        letter-spacing: .03em;
      }

      .cls-6 {
        letter-spacing: .06em;
      }

      .cls-7 {
        letter-spacing: .13em;
      }

      .cls-8 {
        letter-spacing: .06em;
      }
    </style>
  </defs>
  <g>
    <path class="cls-3" d="M1080,1080H0C0,720,0,360,0,0c360,0,720,0,1080,0,0,360,0,720,0,1080ZM642.46,819.18c20.23-6.27,40.49-12.44,60.63-18.97,2.03-.66,3.87-3.27,4.91-5.41,17.62-36.06,35.71-71.91,52.29-108.45,6.51-14.34,9.52-30.27,14.13-45.47.95-.09,1.91-.18,2.86-.27,21.25,33.8,13.95,72.72,16.31,110.87,56.24-41.83,98.27-93.33,126.16-156.16,27.88-62.82,38.3-128.37,31.04-198.49-36.96,52.16-73.38,83.38-99.55,85.47,1.36-2.44,2.51-4.57,3.72-6.66,9.59-16.56,20.01-32.71,28.64-49.76,22.25-43.94,32.59-90.27,23.95-139.52-4.74-27.01-11.11-54.31-27.17-76.66-48.99-68.18-114.2-114.88-194.13-141.06-7.2-2.36-9.76-.15-11.52,5.92-7.16,24.67-14.42,49.31-21.43,74.02-1.98,6.97-3.27,14.14-5.31,23.16-9.81-12.93-11.74-26.19-11.68-39.11.11-21.92,2.23-43.82,3.29-65.75.19-3.87,3.14-9.79-3.94-10.41-5.63-.49-12.17-5.6-16.4,4.3-16.76,39.25-33.13,78.59-43.33,120.19-3.09,12.62-5.87,25.32-8.8,37.99-1.01.21-2.03.43-3.04.64-2.42-7.39-5.79-14.63-7.11-22.21-5.11-29.46-3.11-58.93,2.73-88.02,3.92-19.57,9.57-38.79,14.48-58.3-.89-.23-1.78-.64-2.66-.65-5.34-.05-10.83-.74-15.98.26-3.32.65-7.71,3.13-8.95,5.97-23.77,54.04-44.98,108.99-57.39,166.95-2.32,10.81-4.47,21.66-6.7,32.5-.79.12-1.57.25-2.36.37-1.82-4.09-4.42-8.02-5.33-12.3-13.64-64.07,1.03-125.06,20.98-185.33-1.06-.43-1.68-.94-2.19-.85-6.15,1.13-12.26,2.6-18.45,3.47-6,.85-9.17,3.95-11.26,9.66-18.16,49.54-34.58,99.55-42.87,151.88-.81,5.08-1.97,10.11-2.97,15.16-1.13-.09-2.25-.18-3.38-.27-17.17-52.21-5.98-104.43,1.79-157.84-8.89,4.65-20.71,8.77-23.58,16.3-13.84,36.26-25.42,73.39-37.44,110.32-2.63,8.09-3.79,16.67-5.63,25.02-1.06-.08-2.11-.16-3.17-.24-14.48-36.32-6.38-73.51-2.74-111.47-10.35,7.9-22.37,15.07-28.03,25.64-14.22,26.54-24.66,54.94-30.36,84.79-.3,1.58-1.49,2.99-2.96,5.81-11.03-15.99-8.12-33.45-10.28-51.97-22.72,27.91-42.59,55.12-56.69,87.52,3.32,0,4.92.31,6.35-.05,50.43-12.55,101.27-13.48,152.36-4.98,28.9,4.81,57.06,12.21,82.97,26.45,4.16,2.29,7.88,5.38,11.8,8.09-3.3,1.42-5.7,1.09-8.11.89-29.97-2.54-59.93-7.07-89.91-7.16-57.89-.18-114.06,11.67-168.74,30.46-3.34,1.15-8.08,3.15-8.92,5.8-3.83,11.93-6.5,24.24-9.86,37.52,3.1-.69,4.09-.7,4.85-1.1,71.34-37.83,148.17-49.96,227.8-47.92,34.27.88,68.34,4.33,100.83,16.56,2.82,1.06,5.42,2.72,8.12,4.1-2.35,1.79-3.89,1.89-5.42,1.78-61.91-4.47-123.01,1.21-183.27,15.52-53.48,12.7-104.4,31.95-150.31,62.87-3.28,2.21-7.37,6.2-7.54,9.55-.81,15.18-.36,30.42-.36,45.64,1.1.23,2.2.47,3.3.7,26.76-26.54,57.03-47.86,91.23-63.66,34.16-15.78,69.82-26.34,106.81-32.57,37.07-6.25,96.11-6.52,110.85,4.04-3.89.66-6.87,1.23-9.86,1.67-50.74,7.37-100.73,17.59-148.26,37.66-56.18,23.72-102.34,59.66-135.43,111.3-2.58,4.03-3.39,10.91-1.98,15.53,26.85,87.66,78.6,157.11,154.24,208.76,3.18,2.17,7.42,3.71,11.24,3.88,19.77.87,39.57,1.42,59.36,1.67,38.39.48,76.6-1.4,114.25-9.76,6.22-1.38,12.45-2.77,18.67-4.15.66.9,1.33,1.81,1.99,2.71-3.88,5.43-6.71,12.33-11.84,16.02-18.81,13.5-38.36,25.96-57.69,38.74-2.9,1.92-6.05,3.47-9.09,5.19.2.92.4,1.85.6,2.77,19.19,2.83,38.36,5.78,57.58,8.33,2.49.33,5.64-.81,7.83-2.26,45.19-29.86,89.24-61.12,124.6-102.9,1.44-1.7,3.51-2.86,7.24-5.84,4.25,40.85-18.38,70.63-31.45,105.54Z"/>
    <g>
      <path class="cls-3" d="M724.67,488.52c-1.84,2.72-4.04,5.25-5.45,8.18-8.81,18.38-16.91,37.12-26.3,55.2-8.21,15.8-17.7,30.95-26.87,46.23-4.55,7.58-12.01,11-20.48,11.72-22.21,1.89-44.45,3.51-66.69,5.07-2.37.17-4.81-.79-6.95-1.18,1.29-13.48,3.37-26.4,3.61-39.36.58-31.08-17.38-48.4-48.2-46.52-34.87,2.13-65.74,15.48-93.68,35.84-4.6,3.35-7.91,8.48-11.82,12.79.83,1.07,1.66,2.15,2.48,3.22,11.38-4.67,22.53-10.06,34.21-13.81,13.61-4.37,27.53-9.2,41.6-10.41,20.07-1.73,31.45,10.02,32.83,30.37.83,12.23,1.05,24.49,1.8,36.72.82,13.44,3.33,16.3,16.7,15.45,26.63-1.68,53.19-4.66,79.82-6.17,14.04-.8,28.2.37,42.3.66.63.01,1.38-.07,1.85.24,5.99,3.92,11.94,7.91,17.91,11.88-5.11,4.04-9.68,10.38-15.42,11.71-21.62,5.02-43.47,10.5-65.49,11.95-37.55,2.46-75.33,3.26-112.96,2.46-45.05-.96-89.12-9.25-131.74-24.38-2.31-.82-4.7-1.42-8.46-.46,4.65,4.01,8.95,8.53,14,11.95,21.63,14.63,46.32,21.52,71.75,23.37,43.82,3.18,87.79,4.16,131.69,6.22,6.62.31,13.2,1.52,19.8,2.32.14.97.28,1.93.42,2.9-3.3,1.98-6.36,4.85-9.93,5.79-65.85,17.31-132.21,24.42-198.96,5.82-36.41-10.15-68.18-28.85-92.37-58.68-24.78-30.55-26.73-64.99-14.48-100.57,23.24-67.53,71.09-107.77,141.06-119.59,34.26-5.79,69.3-7.15,104.04-9.84,43.22-3.34,86.5-5.99,128.54-17.63,68.17-18.87,105.6-65.31,118.82-133.25,1.55-7.97,2.93-15.98,4.61-25.17,17.9,7.28,31.86,18.4,42.9,33.14,20.92,27.93,22.8,59.94,18.01,92.72-7.55,51.69-30.08,98.12-52.43,144.55-7.76,16.11-15.49,32.24-22.88,48.53-2.87,6.32-6.06,14.61.62,19.03,5.17,3.42,13.83,4.62,19.89,2.97,11.68-3.19,22.53-9.34,33.9-13.82,17.13-6.76,34.31-13.44,51.71-19.44,3.78-1.3,8.89-.5,12.86.86,12.07,4.11,14.58,16.41,4.38,23.97-7.69,5.7-16.49,10.63-25.55,13.62-35.7,11.79-71.54,23.25-107.69,33.55-10.84,3.09-22.95,3.24-34.34,2.54-13.31-.82-19.19-9-16.46-21.95,5.81-27.6,12.57-54.99,18.77-82.51,2.08-9.22,3.63-18.56,5.43-27.85-.91-.32-1.82-.64-2.73-.97Z"/>
      <path class="cls-3" d="M734.44,238.67c-1.12-2.04-2.21-4.09-3.36-6.11-10.64-18.82-21.41-37.57-31.85-56.51-2.08-3.78-3.35-8.15-4.25-12.41-1.26-5.98,1.34-8.78,7.75-8.19,30.63,2.82,54.14,25.75,57.06,56.39,2.52,26.45,1.07,52.71-6.36,78.34-4.86,16.77-9.87,17.33-26.63,13.42-11.96-2.79-25.57-1.67-37.85.75-24.86,4.9-49.24,12.12-73.95,17.86-12.65,2.94-24.94,2.43-37.67-2.67-11.74-4.71-25.27-4.86-37.22-9.21-8.79-3.2-17.09-9.02-24.18-15.29-8.65-7.64-8.06-14.34,1.32-20.85,7.65-5.31,15.99-10.31,24.76-13.19,23.18-7.6,46.5-15.13,70.27-20.43,15.06-3.36,25.91-9.07,34.07-22.81,12.11-20.39,40.25-23.29,58.05-7.15,7.66,6.94,14.35,14.94,21.55,22.39,2.27,2.34,4.76,4.47,7.14,6.7.45-.35.89-.69,1.34-1.04ZM676.37,226.86c-3.25,4.39-7.1,7.36-6.76,9.75.36,2.57,4.64,4.59,7.21,6.86,2.23-2.56,5.73-4.89,6.24-7.76.36-1.99-3.4-4.72-6.69-8.84Z"/>
      <path class="cls-3" d="M782.54,151.91c21.76,12.38,31.97,47.9,19.14,68.33-2.21,3.51-7.17,7.44-10.75,7.34-3.46-.1-8.65-4.53-9.85-8.13-7.38-22.04-6.49-44.37-.04-66.56.13-.43.98-.66,1.5-.97Z"/>
    </g>
    <g>
      <path class="cls-4" d="M642.46,819.18c13.07-34.92,35.69-64.69,31.45-105.54-3.73,2.97-5.8,4.14-7.24,5.84-35.36,41.78-79.42,73.04-124.6,102.9-2.19,1.45-5.34,2.59-7.83,2.26-19.22-2.55-38.39-5.5-57.58-8.33-.2-.92-.4-1.85-.6-2.77,3.04-1.72,6.18-3.27,9.09-5.19,19.32-12.78,38.88-25.23,57.69-38.74,5.13-3.69,7.96-10.59,11.84-16.02-.66-.9-1.33-1.81-1.99-2.71-6.22,1.38-12.45,2.77-18.67,4.15-37.65,8.36-75.86,10.24-114.25,9.76-19.79-.25-39.58-.8-59.36-1.67-3.82-.17-8.06-1.71-11.24-3.88-75.64-51.66-127.39-121.11-154.24-208.76-1.42-4.62-.61-11.5,1.98-15.53,33.09-51.64,79.25-87.59,135.43-111.3,47.53-20.06,97.53-30.28,148.26-37.66,3-.44,5.98-1.01,9.86-1.67-14.74-10.55-73.78-10.29-110.85-4.04-36.99,6.24-72.66,16.8-106.81,32.57-34.21,15.8-64.47,37.12-91.23,63.66-1.1-.23-2.2-.47-3.3-.7,0-15.22-.46-30.46.36-45.64.18-3.35,4.26-7.34,7.54-9.55,45.91-30.92,96.83-50.17,150.31-62.87,60.26-14.31,121.36-19.99,183.27-15.52,1.53.11,3.08.01,5.42-1.78-2.7-1.38-5.3-3.04-8.12-4.1-32.5-12.23-66.57-15.68-100.83-16.56-79.64-2.04-156.47,10.09-227.8,47.92-.77.41-1.75.42-4.85,1.1,3.37-13.28,6.03-25.59,9.86-37.52.85-2.64,5.58-4.65,8.92-5.8,54.68-18.79,110.85-30.64,168.74-30.46,29.98.09,59.94,4.62,89.91,7.16,2.41.2,4.81.54,8.11-.89-3.92-2.72-7.64-5.81-11.8-8.09-25.91-14.24-54.07-21.64-82.97-26.45-51.09-8.5-101.92-7.57-152.36,4.98-1.43.36-3.03.05-6.35.05,14.1-32.4,33.97-59.61,56.69-87.52,2.16,18.51-.75,35.98,10.28,51.97,1.47-2.82,2.65-4.23,2.96-5.81,5.7-29.85,16.14-58.25,30.36-84.79,5.66-10.57,17.69-17.73,28.03-25.64-3.64,37.95-11.74,75.15,2.74,111.47,1.06.08,2.11.16,3.17.24,1.84-8.35,2.99-16.93,5.63-25.02,12.02-36.94,23.6-74.07,37.44-110.32,2.88-7.53,14.69-11.65,23.58-16.3-7.77,53.41-18.96,105.63-1.79,157.84,1.13.09,2.25.18,3.38.27,1-5.05,2.16-10.08,2.97-15.16,8.29-52.32,24.71-102.34,42.87-151.88,2.09-5.71,5.26-8.81,11.26-9.66,6.19-.87,12.29-2.34,18.45-3.47.51-.09,1.12.42,2.19.85-19.95,60.27-34.62,121.27-20.98,185.33.91,4.28,3.51,8.21,5.33,12.3.79-.12,1.57-.25,2.36-.37,2.23-10.83,4.38-21.68,6.7-32.5,12.41-57.96,33.63-112.91,57.39-166.95,1.25-2.83,5.64-5.32,8.95-5.97,5.15-1,10.64-.31,15.98-.26.88,0,1.77.42,2.66.65-4.91,19.51-10.56,38.73-14.48,58.3-5.83,29.09-7.83,58.55-2.73,88.02,1.32,7.59,4.68,14.82,7.11,22.21,1.01-.21,2.03-.43,3.04-.64,2.92-12.67,5.7-25.37,8.8-37.99,10.19-41.59,26.56-80.94,43.33-120.19,4.23-9.9,10.76-4.8,16.4-4.3,7.08.62,4.13,6.54,3.94,10.41-1.06,21.92-3.18,43.83-3.29,65.75-.06,12.92,1.87,26.18,11.68,39.11,2.04-9.01,3.33-16.18,5.31-23.16,7.02-24.71,14.28-49.35,21.43-74.02,1.76-6.07,4.32-8.28,11.52-5.92,79.93,26.18,145.14,72.87,194.13,141.06,16.06,22.35,22.43,49.65,27.17,76.66,8.64,49.26-1.7,95.59-23.95,139.52-8.63,17.05-19.05,33.2-28.64,49.76-1.21,2.09-2.36,4.21-3.72,6.66,26.17-2.09,62.59-33.31,99.55-85.47,7.27,70.12-3.15,135.67-31.04,198.49-27.89,62.83-69.92,114.33-126.16,156.16-2.36-38.15,4.94-77.07-16.31-110.87-.95.09-1.91.18-2.86.27-4.61,15.2-7.62,31.13-14.13,45.47-16.57,36.54-34.67,72.39-52.29,108.45-1.04,2.14-2.88,4.75-4.91,5.41-20.14,6.53-40.4,12.7-60.63,18.97ZM724.67,488.52c.91.32,1.82.64,2.73.97-1.79,9.29-3.35,18.63-5.43,27.85-6.2,27.52-12.96,54.91-18.77,82.51-2.73,12.95,3.16,21.13,16.46,21.95,11.39.71,23.49.55,34.34-2.54,36.15-10.3,71.99-21.76,107.69-33.55,9.06-2.99,17.86-7.92,25.55-13.62,10.19-7.56,7.68-19.86-4.38-23.97-3.98-1.36-9.09-2.16-12.86-.86-17.4,6.01-34.58,12.69-51.71,19.44-11.37,4.48-22.22,10.63-33.9,13.82-6.06,1.65-14.72.45-19.89-2.97-6.68-4.42-3.49-12.71-.62-19.03,7.38-16.28,15.12-32.41,22.88-48.53,22.35-46.42,44.88-92.86,52.43-144.55,4.79-32.78,2.91-64.79-18.01-92.72-11.04-14.74-25-25.86-42.9-33.14-1.68,9.19-3.06,17.2-4.61,25.17-13.22,67.93-50.65,114.38-118.82,133.25-42.04,11.64-85.33,14.3-128.54,17.63-34.74,2.68-69.78,4.05-104.04,9.84-69.96,11.82-117.82,52.06-141.06,119.59-12.25,35.58-10.29,70.03,14.48,100.57,24.19,29.82,55.96,48.53,92.37,58.68,66.74,18.6,133.1,11.49,198.96-5.82,3.57-.94,6.63-3.82,9.93-5.79-.14-.97-.28-1.93-.42-2.9-6.6-.8-13.18-2.01-19.8-2.32-43.9-2.07-87.88-3.05-131.69-6.22-25.43-1.84-50.12-8.74-71.75-23.37-5.05-3.42-9.35-7.93-14-11.95,3.76-.96,6.15-.37,8.46.46,42.62,15.13,86.69,23.42,131.74,24.38,37.63.8,75.4,0,112.96-2.46,22.02-1.44,43.88-6.93,65.49-11.95,5.74-1.33,10.31-7.67,15.42-11.71-5.96-3.97-11.91-7.96-17.91-11.88-.47-.31-1.23-.23-1.85-.24-14.1-.29-28.26-1.46-42.3-.66-26.64,1.51-53.19,4.49-79.82,6.17-13.37.84-15.88-2.02-16.7-15.45-.75-12.23-.97-24.5-1.8-36.72-1.38-20.35-12.76-32.1-32.83-30.37-14.08,1.21-27.99,6.04-41.6,10.41-11.68,3.75-22.82,9.15-34.21,13.81-.83-1.07-1.66-2.15-2.48-3.22,3.91-4.31,7.22-9.44,11.82-12.79,27.94-20.37,58.82-33.71,93.68-35.84,30.82-1.89,48.78,15.44,48.2,46.52-.24,12.95-2.32,25.87-3.61,39.36,2.14.39,4.59,1.34,6.95,1.18,22.24-1.56,44.48-3.18,66.69-5.07,8.48-.72,15.94-4.15,20.48-11.72,9.17-15.28,18.66-30.43,26.87-46.23,9.39-18.07,17.49-36.82,26.3-55.2,1.4-2.92,3.61-5.46,5.45-8.18ZM734.44,238.67c-.45.35-.89.69-1.34,1.04-2.39-2.23-4.88-4.36-7.14-6.7-7.2-7.45-13.9-15.45-21.55-22.39-17.8-16.14-45.94-13.24-58.05,7.15-8.16,13.74-19.01,19.45-34.07,22.81-23.77,5.3-47.09,12.82-70.27,20.43-8.77,2.88-17.11,7.88-24.76,13.19-9.38,6.51-9.97,13.21-1.32,20.85,7.1,6.26,15.39,12.09,24.18,15.29,11.95,4.34,25.47,4.5,37.22,9.21,12.73,5.1,25.02,5.61,37.67,2.67,24.7-5.73,49.09-12.96,73.95-17.86,12.28-2.42,25.89-3.54,37.85-.75,16.76,3.91,21.78,3.35,26.63-13.42,7.42-25.63,8.88-51.89,6.36-78.34-2.92-30.64-26.43-53.57-57.06-56.39-6.41-.59-9.01,2.21-7.75,8.19.9,4.26,2.17,8.63,4.25,12.41,10.44,18.93,21.21,37.69,31.85,56.51,1.14,2.02,2.24,4.07,3.36,6.11ZM782.54,151.9c-.51.32-1.37.54-1.49.98-6.45,22.19-7.34,44.52.04,66.56,1.21,3.6,6.39,8.03,9.85,8.13,3.58.1,8.54-3.82,10.75-7.34,12.83-20.43,2.62-55.95-19.14-68.34Z"/>
      <path class="cls-4" d="M676.37,226.86c3.3,4.12,7.05,6.85,6.69,8.84-.52,2.87-4.01,5.2-6.24,7.76-2.57-2.26-6.85-4.28-7.21-6.86-.34-2.38,3.52-5.36,6.76-9.75Z"/>
    </g>
  </g>
  <g>
    <path class="cls-4" d="M230.49,854.08c18.31,0,34.29,6.88,34.29,29.35,0,28.57-23.77,30.26-34.8,30.26h-20.39v31.3h-21.43v-90.91h42.34ZM209.58,896.03h16.75c10.26,0,15.32-3.64,15.32-12.47,0-12.34-10.52-11.82-15.32-11.82h-16.75v24.29Z"/>
    <path class="cls-4" d="M312.56,854.08v90.91h-21.43v-90.91h21.43Z"/>
    <path class="cls-4" d="M367.37,880.05h-.39v64.93h-21.43v-90.91h30.13l21.69,62.47,21.69-62.47h30.13v90.91h-21.43v-64.93h-.39l-22.73,64.93h-14.55l-22.73-64.93Z"/>
    <path class="cls-4" d="M526.97,854.08l34.16,90.91h-22.73l-5.84-17.01h-32.99l-5.71,17.01h-22.6l34.03-90.91h21.69ZM527.88,912.52l-11.69-34.67-11.95,34.67h23.64Z"/>
    <path class="cls-4" d="M599.04,915.51c0,5.58,2.86,14.42,18.18,14.42,7.92,0,16.23-1.43,16.23-9.35,0-9.74-12.21-11.82-23.12-14.16-16.23-3.51-30-7.79-30-28.05,0-14.67,9.74-26.88,37.27-26.88,25.19,0,34.15,14.42,34.54,27.53h-20.26c-.65-4.93-3.9-9.87-15.58-9.87-10.65,0-14.03,4.16-14.03,8.7,0,7.79,10.13,9.87,17.92,11.17,19.22,3.9,35.19,8.31,35.19,28.31,0,7.4-2.08,30.26-38.44,30.26-33.51,0-39.61-20-39.61-32.08h21.69Z"/>
    <path class="cls-4" d="M671.64,871.74v-17.66h76.36v17.66h-27.4v73.25h-21.43v-73.25h-27.53Z"/>
    <path class="cls-4" d="M838.38,890.18v16.75h-44.42v20.39h51.69v17.66h-73.12v-90.91h71.82v17.66h-50.39v18.44h44.42Z"/>
    <path class="cls-4" d="M871.5,854.08h46.49c9.35,0,30.91,2.34,30.91,25.84,0,15.45-9.87,20.65-15.84,22.73v.26c12.47,3.77,12.99,15.32,12.99,22.08.39,11.69.26,15.2,3.51,20h-21.82c-3.77-5.45-2.6-9.48-3.64-23.12-1.04-10.78-12.08-10.39-14.67-10.39h-16.49v33.51h-21.43v-90.91ZM892.93,894.86h19.61c12.08,0,13.77-7.01,13.77-11.43,0-8.96-5.19-11.69-14.54-11.69h-18.83v23.12Z"/>
  </g>
  <text class="cls-1" transform="translate(188 984.33) scale(1.03 1)">
  <tspan class="cls-2" x="40" y="0">Surgery - Teaching - Research</tspan></text>
</svg>